{"asset":{"generator":"3D Builder","version":"2.0"},"scene":0,"scenes":[{"nodes":[0]}],"nodes":[{"mesh":0,"matrix":[1,0,0,0,0,-1.1920928955078125E-7,-0.99999988079071045,0,0,0.99999988079071045,-1.1920928955078125E-7,0,0.017372751608490944,0.35004621744155884,-0.26917764544487,1]}],"meshes":[{"primitives":[{"attributes":{"POSITION":0},"mode":4,"indices":3,"material":0},{"attributes":{"POSITION":1},"mode":4,"indices":4,"material":0},{"attributes":{"POSITION":2},"mode":4,"indices":5,"material":0}]}],"materials":[{"name":"Metallic","pbrMetallicRoughness":{"baseColorFactor":[0.70110201835632324,0.43965724110603333,0.024157630279660225,1],"metallicFactor":1,"roughnessFactor":0.040000021457672119},"alphaMode":"OPAQUE"}],"accessors":[{"bufferView":0,"byteOffset":0,"count":86,"componentType":5126,"type":"VEC3","min":[-0.42488795518875122,-0.049829494208097458,-0.35004627704620361],"max":[0.41197991371154785,-0.0018843309953808784,0.48682194948196411]},{"bufferView":0,"byteOffset":1032,"count":20,"componentType":5126,"type":"VEC3","min":[-0.36729079484939575,-0.049829494208097458,-0.29244911670684814],"max":[0.35438293218612671,-0.049829408526420593,0.42922478914260864]},{"bufferView":0,"byteOffset":1272,"count":60,"componentType":5126,"type":"VEC3","min":[-0.42488795518875122,-0.0018844306468963623,-0.35004627704620361],"max":[0.41197991371154785,0.023221813142299652,0.48682194948196411]},{"bufferView":1,"byteOffset":0,"count":396,"componentType":5125,"type":"SCALAR"},{"bufferView":1,"byteOffset":1584,"count":54,"componentType":5125,"type":"SCALAR"},{"bufferView":1,"byteOffset":1800,"count":294,"componentType":5125,"type":"SCALAR"}],"bufferViews":[{"buffer":0,"byteOffset":0,"byteLength":1992,"byteStride":12,"target":34962},{"buffer":0,"byteOffset":1992,"byteLength":2976,"target":34963}],"buffers":[{"byteLength":4968,"uri":"coin.bin"}]}